<svg xmlns="http://www.w3.org/2000/svg" xmlns:xlink="http://www.w3.org/1999/xlink" version="1.1" x="0px" y="0px" viewBox="0 0 64 80" style="enable-background:new 0 0 64 64;" xml:space="preserve"><g><path d="M45.553,53.658L41,51.382V6c0-2.757-2.243-5-5-5H12C9.243,1,7,3.243,7,6v43H6c-2.757,0-5,2.243-5,5v4c0,2.757,2.243,5,5,5   h30.236l9.317-4.658C46.445,57.895,47,56.997,47,56S46.445,54.105,45.553,53.658z M13,51v10h-2V51H13z M35,55H15v-4h20V55z M15,57   h20v4H15V57z M37,51.618l4,2v4.763l-4,2V51.618z M39,6v2.026C38.162,7.391,37.13,7,36,7h-8.026C28.609,6.162,29,5.13,29,4V3h7   C37.654,3,39,4.346,39,6z M21,4V3h2v2h2V3h2v1c0,1.654-1.346,3-3,3S21,5.654,21,4z M12,3h7v1c0,1.13,0.391,2.162,1.026,3H12   c-1.13,0-2.162,0.391-3,1.026V6C9,4.346,10.346,3,12,3z M9,12c0-1.654,1.346-3,3-3h24c1.654,0,3,1.346,3,3v38.382L36.236,49H9V12z    M3,58v-4c0-1.654,1.346-3,3-3h3v10H6C4.346,61,3,59.654,3,58z M44.658,56.553L43,57.382v-2.763l1.657,0.829   C44.869,55.553,45,55.765,45,56S44.869,56.447,44.658,56.553z"/><polygon points="51.707,42.293 50.293,43.707 54.108,47.522 60.8,38.6 59.2,37.4 53.892,44.478  "/><polygon points="59,49 49,49 49,39 55,39 55,37 47,37 47,51 61,51 61,44 59,44  "/><polygon points="51.707,26.293 50.293,27.707 54.108,31.522 60.8,22.6 59.2,21.4 53.892,28.478  "/><polygon points="59,33 49,33 49,23 55,23 55,21 47,21 47,35 61,35 61,28 59,28  "/><polygon points="51.707,10.293 50.293,11.707 54.108,15.522 60.8,6.6 59.2,5.4 53.892,12.478  "/><polygon points="59,12 59,17 49,17 49,7 55,7 55,5 47,5 47,19 61,19 61,12  "/><rect x="11" y="37" width="14" height="2"/><rect x="11" y="41" width="14" height="2"/><rect x="11" y="45" width="6" height="2"/><rect x="19" y="45" width="6" height="2"/><path d="M27,43h10v-6H27V43z M29,39h6v2h-6V39z"/><rect x="27" y="45" width="2" height="2"/><rect x="31" y="45" width="2" height="2"/><rect x="35" y="45" width="2" height="2"/><path d="M23,28.816V31h2v-2h2v-3c0-1.654-1.346-3-3-3c-0.552,0-1-0.449-1-1v-1h1c0.552,0,1,0.449,1,1v1h2v-1   c0-1.302-0.839-2.402-2-2.816V17h-2v2h-2v3c0,1.654,1.346,3,3,3c0.552,0,1,0.449,1,1v1h-1c-0.552,0-1-0.449-1-1v-1h-2v1   C21,27.302,21.839,28.402,23,28.816z"/><path d="M24,35c6.065,0,11-4.935,11-11s-4.935-11-11-11s-11,4.935-11,11S17.935,35,24,35z M24,15c4.963,0,9,4.038,9,9s-4.037,9-9,9   s-9-4.038-9-9S19.037,15,24,15z"/></g><text x="0" y="79" fill="#000000" font-size="5px" font-weight="bold" font-family="'Helvetica Neue', Helvetica, Arial-Unicode, Arial, Sans-serif">Created by Eucalyp</text><text x="0" y="84" fill="#000000" font-size="5px" font-weight="bold" font-family="'Helvetica Neue', Helvetica, Arial-Unicode, Arial, Sans-serif">from the Noun Project</text></svg>